<svg width="30" height="30" viewBox="0 0 30 30" fill="none" xmlns="http://www.w3.org/2000/svg">
<path d="M8.75 17.5L11.6161 14.6339C12.1043 14.1457 12.8957 14.1457 13.3839 14.6339L15.3661 16.6161C15.8543 17.1043 16.6457 17.1043 17.1339 16.6161L21.25 12.5M21.25 12.5V15.625M21.25 12.5H18.125" stroke="white" stroke-width="2" stroke-linecap="round" stroke-linejoin="round"/>
<path d="M27.5 15C27.5 20.8925 27.5 23.8389 25.6694 25.6694C23.8389 27.5 20.8925 27.5 15 27.5C9.10744 27.5 6.16116 27.5 4.33059 25.6694C2.5 23.8389 2.5 20.8925 2.5 15C2.5 9.10744 2.5 6.16116 4.33059 4.33059C6.16116 2.5 9.10744 2.5 15 2.5C20.8925 2.5 23.8389 2.5 25.6694 4.33059C26.8866 5.54776 27.2945 7.25819 27.4311 10" stroke="white" stroke-width="2" stroke-linecap="round"/>
</svg>
