<svg width="20" height="24" viewBox="0 0 20 24" fill="none" xmlns="http://www.w3.org/2000/svg">
<path fill-rule="evenodd" clip-rule="evenodd" d="M13.7685 0C14.3248 0 14.8711 0.225875 15.265 0.619763L19.3803 4.73506C19.7798 5.13459 20.0001 5.66681 20.0001 6.23152V24H0.235352V0H13.7685ZM12.9412 1.41176H1.6471V22.5883H18.5883V7.05883H12.9412L12.9412 1.41176ZM14.353 1.704V5.64706H18.2961L14.353 1.704Z" fill="black"/>
<path fill-rule="evenodd" clip-rule="evenodd" d="M9.37875 8.47089C9.71334 8.47089 10.0084 8.62901 10.2286 8.94382C10.7524 9.68217 10.7157 10.4685 10.5223 11.5273C10.4559 11.8916 10.5237 12.2601 10.7256 12.5664C11.0107 13.0012 11.4216 13.5998 11.8253 14.1066C12.1218 14.4808 12.5778 14.6798 13.0395 14.6177C13.3359 14.5768 13.6931 14.5429 14.0602 14.5429C15.6978 14.5429 15.575 15.1273 15.7232 15.6638C15.8051 15.9885 15.7642 16.2723 15.5962 16.4826C15.3872 16.7664 14.9566 16.9132 14.327 16.9132C13.6296 16.9132 13.3995 16.7947 12.7924 16.6012C12.4493 16.4911 12.0936 16.4685 11.7463 16.5603C11.0531 16.741 9.90957 17.0163 8.95522 17.1476C8.44557 17.2182 7.98252 17.4808 7.67475 17.9085C6.98157 18.8685 6.33922 19.765 5.32134 19.765C5.05875 19.765 4.81734 19.6704 4.61829 19.4812C4.32464 19.1876 4.19899 18.8615 4.26111 18.4831C4.43334 17.3212 5.86205 16.6732 6.71194 16.2003C6.9124 16.0888 7.07052 15.9179 7.16934 15.7062L8.51759 12.7909C8.61359 12.5862 8.64322 12.3589 8.60794 12.1344C8.45122 11.1462 8.21969 9.48454 8.84229 8.73347C8.97922 8.56547 9.16841 8.47089 9.37875 8.47089ZM9.6357 12.7203C9.09499 14.3029 8.13922 16.0238 8.01075 16.2243C9.16416 15.6822 11.4597 15.4083 11.4597 15.4083C10.3049 14.2958 9.6357 12.7203 9.6357 12.7203Z" fill="black"/>
</svg>
