<svg width="40" height="40" viewBox="0 0 40 40" fill="none" xmlns="http://www.w3.org/2000/svg">
<path d="M11.1667 35.5C10.8612 35.1944 10.7084 34.8056 10.7084 34.3333C10.7084 33.8611 10.8612 33.4722 11.1667 33.1667L19.125 25.1667C19.7639 24.5278 20.5556 24.2083 21.5 24.2083C22.4445 24.2083 23.2362 24.5278 23.875 25.1667L27.3334 28.625L34.7917 21.1667C35.125 20.8333 35.5139 20.6667 35.9584 20.6667C36.4028 20.6667 36.7917 20.8333 37.125 21.1667C37.4584 21.5 37.625 21.8958 37.625 22.3542C37.625 22.8125 37.4584 23.2083 37.125 23.5417L29.7084 31C29.0695 31.6389 28.2848 31.9583 27.3542 31.9583C26.4237 31.9583 25.6389 31.6389 25 31L21.5 27.5L13.5 35.5C13.1945 35.8056 12.8125 35.9653 12.3542 35.9792C11.8959 35.9931 11.5 35.8333 11.1667 35.5ZM6.66671 35C5.75004 35 4.96532 34.6736 4.31254 34.0208C3.65976 33.3681 3.33337 32.5833 3.33337 31.6667V8.33333C3.33337 7.41667 3.65976 6.63194 4.31254 5.97917C4.96532 5.32639 5.75004 5 6.66671 5H30C30.9167 5 31.7014 5.32639 32.3542 5.97917C33.007 6.63194 33.3334 7.41667 33.3334 8.33333V15C33.3334 15.4722 33.1737 15.8681 32.8542 16.1875C32.5348 16.5069 32.1389 16.6667 31.6667 16.6667H6.66671V35Z" fill="#FFC235" fill-opacity="0.4"/>
</svg>
