<svg width="30" height="30" viewBox="0 0 30 30" fill="none" xmlns="http://www.w3.org/2000/svg">
<g clip-path="url(#clip0_88_398)">
<path fill-rule="evenodd" clip-rule="evenodd" d="M13.03 16.6145C13.4818 19.2756 14.0306 22.055 14.3342 22.6268C14.7647 23.4368 15.7724 23.7509 16.5842 23.3203C17.3942 22.8898 17.7047 21.8786 17.2742 21.0686C16.9706 20.4968 14.9783 18.4833 13.03 16.6145ZM12.3453 13.5456C13.3071 14.4351 18.1406 18.9333 18.8342 20.2427C19.72 21.9121 19.0812 23.9909 17.41 24.8786C16.9 25.1486 16.3512 25.2756 15.8112 25.2756C14.5812 25.2756 13.39 24.6139 12.7742 23.4545C12.0806 22.1451 11.0694 15.6209 10.8736 14.3256C10.8189 13.9551 11.0024 13.588 11.3324 13.4151C11.6659 13.2386 12.0683 13.2897 12.3453 13.5456ZM15.0005 4.40607C23.2717 4.40607 30.0005 11.1366 30.0005 19.4061C30.0005 20.6114 29.8611 21.799 29.584 22.9355L29.4217 23.6096H21.2282V21.8449H28.0134C28.1617 21.0525 28.2358 20.2337 28.2358 19.4061C28.2358 12.1072 22.2976 6.17075 15.0005 6.17075C7.70168 6.17075 1.76521 12.1072 1.76521 19.4061C1.76521 20.2337 1.83933 21.0525 1.9858 21.8449H9.60227V23.6096H0.577566L0.415223 22.9355C0.139895 21.799 0.000488281 20.6113 0.000488281 19.4061C0.000488281 11.1366 6.72933 4.40607 15.0005 4.40607ZM23.4778 10.5105L24.7255 11.7582L22.9643 13.5194L21.7166 12.2717L23.4778 10.5105ZM6.5218 10.5105L8.28297 12.2717L7.03532 13.5193L5.27418 11.7582L6.52182 10.5105L6.5218 10.5105ZM15.8822 7.36424V9.856H14.1174V7.36422L15.8822 7.36424Z" fill="white"/>
</g>
<defs>
<clipPath id="clip0_88_398">
<rect width="30" height="30" fill="white"/>
</clipPath>
</defs>
</svg>
