<svg width="40" height="32" viewBox="0 0 40 32" fill="none" xmlns="http://www.w3.org/2000/svg">
<path d="M36.7558 9.08562L34.2918 12.7944C35.4801 15.1662 36.0618 17.7959 35.9849 20.448C35.908 23.1001 35.1748 25.6916 33.851 27.9905H6.08581C4.36534 25.0036 3.65243 21.5414 4.05278 18.1172C4.45312 14.6929 5.9454 11.489 8.30839 8.98022C10.6714 6.47148 13.7793 4.79152 17.1713 4.1894C20.5634 3.58728 24.0591 4.09505 27.1401 5.63744L30.8462 3.17159C27.073 0.750282 22.5974 -0.334714 18.1352 0.090157C13.6731 0.515028 9.48223 2.42522 6.23303 5.51518C2.98384 8.60513 0.864023 12.6963 0.212673 17.1343C-0.438677 21.5724 0.41607 26.1008 2.64019 29.9952C2.98978 30.6012 3.49176 31.1051 4.09623 31.4568C4.7007 31.8085 5.38661 31.9957 6.08581 32H33.831C34.537 32.0028 35.2312 31.8188 35.8433 31.4668C36.4554 31.1147 36.9637 30.6071 37.3167 29.9952C39.1625 26.7955 40.0887 23.1475 39.9933 19.4541C39.8979 15.7607 38.7844 12.1656 36.7758 9.06557L36.7558 9.08562ZM17.1438 22.7981C17.5159 23.1709 17.9578 23.4667 18.4442 23.6684C18.9306 23.8702 19.4519 23.9741 19.9784 23.9741C20.505 23.9741 21.0263 23.8702 21.5127 23.6684C21.9991 23.4667 22.441 23.1709 22.8131 22.7981L34.1515 5.77777L17.1438 17.1247C16.7713 17.4971 16.4758 17.9393 16.2742 18.426C16.0725 18.9128 15.9688 19.4345 15.9688 19.9614C15.9688 20.4883 16.0725 21.0101 16.2742 21.4968C16.4758 21.9836 16.7713 22.4258 17.1438 22.7981Z" fill="#FFC235" fill-opacity="0.4"/>
</svg>
