<svg width="40" height="40" viewBox="0 0 40 40" fill="none" xmlns="http://www.w3.org/2000/svg">
<g clip-path="url(#clip0_2257_108)">
<path d="M31.6667 6.66666H30V3.33333H26.6667V6.66666H13.3333V3.33333H10V6.66666H8.33333C6.48333 6.66666 5.01667 8.16666 5.01667 9.99999L5 33.3333C5 35.1667 6.48333 36.6667 8.33333 36.6667H31.6667C33.5 36.6667 35 35.1667 35 33.3333V9.99999C35 8.16666 33.5 6.66666 31.6667 6.66666ZM31.6667 33.3333H8.33333V16.6667H31.6667V33.3333ZM15 23.3333H11.6667V20H15V23.3333ZM21.6667 23.3333H18.3333V20H21.6667V23.3333ZM28.3333 23.3333H25V20H28.3333V23.3333ZM15 30H11.6667V26.6667H15V30ZM21.6667 30H18.3333V26.6667H21.6667V30ZM28.3333 30H25V26.6667H28.3333V30Z" fill="#FFC235" fill-opacity="0.4"/>
</g>
<defs>
<clipPath id="clip0_2257_108">
<rect width="40" height="40" fill="white"/>
</clipPath>
</defs>
</svg>
